{"title":"Big Mommas Like Father Like Son 2011 TS XViD - IMAGiNE","uid":6190484,"size":1489180799,"categoryP":"video","categoryS":"movies","magnet":"?xt=urn:btih:88e70d62e90acb7360772164fd21a3dec48135ff&amp;dn=Big+Mommas+Like+Father+Like+Son+2011+TS+XViD+-+IMAGiNE&amp;tr=udp%3A%2F%2Ftracker.openbittorrent.com%3A80&amp;tr=udp%3A%2F%2Fopen.demonii.com%3A1337&amp;tr=udp%3A%2F%2Ftracker.coppersurfer.tk%3A6969&amp;tr=udp%3A%2F%2Fexodus.desync.com%3A6969","seeders":0,"leechers":1,"uploader":"hiest","files":-1,"time":1298262479,"description":"Another Fine Release Brought to you from - IMAGiNE \n\n\n\n\n\n******************************************************************************************************************** \n\nBig Mommas Like Father Like Son 2011 TS XViD - IMAGiNE\n\n********************************************************************************************************************\n\n\n\nRipper ...........:IMAGiNE IMDB Rating.......:2.7/10 \n\nVideo Codec.......:XVID Release Date......:18/02/11\n\nAudio Codec.......:MP3 Theatre Date......:20/02/11\n\nAudio Bitrate.....:128 Runtime...........:1h 39mn\n\nSubtitles.........:NIL Language..........:ENGLISH\n\nResolution........:656 x 368 IMDb URL.......... http://www.imdb.com/title/tt1464174/\n\n\n\n\n\nDETAILS:\n\n\n\nVideo\n\nID : 0\n\nFormat : MPEG-4 Visual\n\nFormat profile : Advanced Simple@L5\n\nFormat settings, BVOP : Yes\n\nFormat settings, QPel : No\n\nFormat settings, GMC : No warppoints\n\nFormat settings, Matrix : Default (MPEG)\n\nMuxing mode : Packed bitstream\n\nCodec ID : XVID\n\nCodec ID/Hint : XviD\n\nDuration : 1h 39mn\n\nBit rate : 1 844 Kbps\n\nWidth : 656 pixels\n\nHeight : 368 pixels\n\nDisplay aspect ratio : 16:9\n\nFrame rate : 25.000 fps\n\nColor space : YUV\n\nChroma subsampling : 4:2:0\n\nBit depth : 8 bits\n\nScan type : Progressive\n\nBits/(Pixel*Frame) : 0.306\n\nStream size : 1.28 GiB (93%)\n\nWriting library : XviD 61\n\n\n\nAudio\n\nID : 1\n\nFormat : MPEG Audio\n\nFormat version : Version 1\n\nFormat profile : Layer 3\n\nCodec ID : 55\n\nCodec ID/Hint : MP3\n\nDuration : 1h 39mn\n\nBit rate mode : Constant\n\nBit rate : 128 Kbps\n\nChannel(s) : 2 channels\n\nSampling rate : 44.1 KHz\n\nStream size : 91.3 MiB (6%)\n\nAlignment : Split accross interleaves\n\nInterleave, duration : 40 ms (1.00 video frame)\n\nInterleave, preload duration : 500 ms\n\n\n\n\n\nSOURCES:\n\n\n\nVIDEO: CiNEDUB...Thanks \n\nAUDIO: Thanks matey \n\n\n\nNOTES:\n\n\n\nIMAGiNE bringing you another release.......... Big Mommas 2011\n\n\n\n\n\n\n\nHere we are with a nice encode of this one for you all. Now for the video we just made a script\n\ncontaining white balance,resize, rgb eq, sharpness, chroma, brightness, contrast ect. With the audio\n\nit was just a matter of syncing it to the video.\n\nFYI we will of had this out hours ago, but IMAGiNE team got to sleep too.\n\n\n\n\n\n================================== &lt;a href=&quot;\nhttp://thepiratebay.se/user/hiest&quot; rel=&quot;nofollow&quot; target=&quot;_NEW&quot;&gt;\nhttp://thepiratebay.se/user/hiest&lt;/a&gt;\n==================================\n\n\n\n\n\nScreen Shots:\n\n &lt;a href=&quot;\nhttp://www.grinshare.com/img/MEIFV5.png&quot; rel=&quot;nofollow&quot; target=&quot;_NEW&quot;&gt;\nhttp://www.grinshare.com/img/MEIFV5.png&lt;/a&gt;\n &lt;a href=&quot;\nhttp://www.grinshare.com/img/I3SZ5W.png&quot; rel=&quot;nofollow&quot; target=&quot;_NEW&quot;&gt;\nhttp://www.grinshare.com/img/I3SZ5W.png&lt;/a&gt;\n &lt;a href=&quot;\nhttp://www.grinshare.com/img/VW24J1.png&quot; rel=&quot;nofollow&quot; target=&quot;_NEW&quot;&gt;\nhttp://www.grinshare.com/img/VW24J1.png&lt;/a&gt;\n &lt;a href=&quot;\nhttp://www.grinshare.com/img/2XHY0E.png&quot; rel=&quot;nofollow&quot; target=&quot;_NEW&quot;&gt;\nhttp://www.grinshare.com/img/2XHY0E.png&lt;/a&gt;\n","torrent":{"xt":"urn:btih:88e70d62e90acb7360772164fd21a3dec48135ff","amp;dn":"Big+Mommas+Like+Father+Like+Son+2011+TS+XViD+-+IMAGiNE","amp;tr":["udp%3A%2F%2Ftracker.openbittorrent.com%3A80","udp%3A%2F%2Fopen.demonii.com%3A1337","udp%3A%2F%2Ftracker.coppersurfer.tk%3A6969","udp%3A%2F%2Fexodus.desync.com%3A6969"],"infoHash":"88e70d62e90acb7360772164fd21a3dec48135ff","infoHashBuffer":{"type":"Buffer","data":[136,231,13,98,233,10,203,115,96,119,33,100,253,33,163,222,196,129,53,255]},"announce":[],"urlList":[]}}